  <svg viewBox="-5 -5 790 215" width="33%" id="amstrad-logo">
    <defs>
      <g id="amstrad-logo-a">
        <path d="M40 203l3-40h16l3 40h40L78 1H26L0 203h40zM57 130H46l6-78 5 78z" />
      </g>
    </defs>
    <use xlink:href="#amstrad-logo-a" />
    <path d="M170 1h-57v202h39V88l16 115h25L210 88v114h39V1h-57l-10 89L171 1z" />
    <path d="M257 24l0 48a32.2 32 0 0 0 1.1 6c0 2 2 5 3 7a25 25 0 0 0 3 3 55 55 0 0 0 5 4 60 60 0 0 0 11 8l26 14c1 1 2 1 4 2 3 3 3 6 3 9l1 4V161c0 2-2 4-1 6a6 6 0 0 1-7 3 6 6 0 0 1-2-1c-2-2-2-5-2-8v-41h-43v46c0 5.7.1 11 1 16.6.7 3 1.7 6 3 9a24 24 0 0 0 6 7 30 30 0 0 0 8 4 25 25 0 0 0 6 1l5 1h44c2 0 4 0 6-1a30 30 0 0 0 8-3c3-2 5-4 6-6s2-4 3-7 1-4 2-6a73 73 0 0 0 1-9c0-3 0-6 0-9l-0-41a172 172 0 0 0-0-7 26 26 0 0 0-0-3 35 35 0 0 0-1-2 18 18 0 0 0-1-3c-1-1-2-3-3-5a28 28 0 0 0-4-5 44 44 0 0 0-5-4 170 170 0 0 0-13-8l-18-10a46 46 0 0 1-3-2 52 52 0 0 1-3-2c-1-1-1-1-2-1-0-0-0-0-1-1a12 12 0 0 1-2-5c-0-1 0-2 0-3v-19a13 13 0 0 1 0-5 9 9 0 0 1 1-2c2-3 5-3 7-2a6 6 0 0 1 2 1 7 7 0 0 1 1 2c.3.7.4 1.4.6 2a68 68 0 0 1 .2 7.3v24h43l-1-49a36 36 0 0 0-1-3 21 21 0 0 0-1-3c-1-2-2-4-3-6a22 22 0 0 0-5-5 26 26 0 0 0-6-3c-4-1-7-2-10-2-2-0-3-0-5-1l-37.4.3a54 54 0 0 0-13 2 22 22 0 0 0-4 2c-3 1-5 3-7 5-1 1-2 3-3 5a27 27 0 0 0-3 12z"/>
    <path d="M362 1v33h22v170h43V34h21V1h-86z" />
    <path d="M505 0h-46v202h43v-81c2.8.1 6-0 8.5.7.6.2 1.2.5 2 1 2 2 2 4 2 6 0 4.2.1 8.3.2 13v60.6h43V140a92 92 0 0 0-2-19c-0-1-1-3-2-4.2a24 24 0 0 0-4-6c-2-2-3-3-6-5a24 24 0 0 0-7-3 28 28 0 0 0 3-0c2-1 4-2 6-4s3.4-3 5-5 2-4 3-7l1.2-5a122 122 0 0 0 1-21v-21c.1-4-0-8-1-13l-1-6c-0-2-1-3-1-4a25 25 0 0 0-2-4 25 25 0 0 0-3-4c-1-2-3-3-5-4a26 26 0 0 0-12-4c-10-1-19-1-28-1zm-3 33h6a9 9 0 0 1 2.9.8c3 2 3 4 3 7l0 8v26.6c0 2-0 3-0 5a6 6 0 0 1-2 4c-1 1-3 1-5 1.4-1.8.2-3.6.2-5.4.1V34z"/>
    <use xlink:href="#amstrad-logo-a" x="567" />
    <path d="M774 14c-2-2-3-5-6-6s-5-3-7-4a20 20 0 0 0-4-1 59 59 0 0 0-4-1 71 71 0 0 0-5-1L680 1v202.2l68.6-0c2 0 3-2 5-1 4-1 7-1 10-3 2-1 4-2 5-3a18 18 0 0 0 5-5 35 35 0 0 0 4-10 54 54 0 0 0 2-13l-1-138c0-3-1-6-2-9a30 30 0 0 0-3-8Z m-48 21h3a14 14 0 0 1 2.5.5 7 7 0 0 1 1.8.8c.5.3 1 1 1 1 2 2 1 5 1 8v117a18 18 0 0 1-0 3c-.1.8-1 2-1 2s-1 1-1 2a6 6 0 0 1-2 1c-.6.3-1.2.8-2 1h-7l0-136z"/>
  </svg>