<svg xmlns="http://www.w3.org/2000/svg" viewbox="0,0,1702,1255" stroke-linecap="round" stroke-linejoin="round" stroke-miterlimit="1.5">
    <text x="1315" y="565" text-anchor="middle" class="A">USER</text>
    <text x="1315" y="600" text-anchor="middle" class="A">INSTRUCTIONS</text>
    <text x="1500" y="867">This manual</text>
    <text x="746" y="617">Aerial lead</text>
    <text x="190" y="1006">PSU</text>
    <text x="1350" y="100">Spectrum</text>
    <text x="1500" y="100" font-weight="700" font-style="italic">+3</text>
    <text x="1550" y="100">computer</text>
    <text x="1250" y="394">User registration/guarantee card</text>
    <g class="E">
        <path d="M170.32 827.89l290.69 208.74 156.72-123.05-11.11-95.08-154.59 113.89-.17 97.67M170.32 827.74l1.6-92.76 150.19-87.16M176.64 833.23l.24 27.73 283.15 207.57 149.42-117.55 1.2-31.37" />
        <path d="M460.21 1066.6l.49-29.79" />
    </g>
    <g fill="#fff" class="C">
        <path d="M599.15 807.5l1 6.4" />
        <path d="M445.63 919.45l153.6-112.07-7.56-4.03-152.05 112.62 6.01 3.48z" />
        <path d="M461.62 1033.45l.13-92.47c-.54-5.14.62-8.66 3.97-10.1l125.64-91.6c6.84-4.44 7.06-3.25 7.91 9.09l6.42 73.46M176.91 743.22l274.87 189.11" />
        <path d="M439.46 916.02l6.43 3.3.57 106.05-7.07-5.16.07-104.19z" />
        <path d="M424.9 907.29l8.21 4.45 151.66-111.7-7.06-4.03L424.9 907.29z" />
        <path d="M424.86 907.21l8.17 4.33 1.38 105.2-7.5-5.37-2.05-104.16zm-44.46-31.42l8.21 4.45 151.66-107.7-7.06-4.03L380.4 875.79z" />
        <path d="M380.36 875.71l8.17 4.33 1.38 105.2-7.5-5.37-2.05-104.16zm-14.46-8.42l8.21 4.45 152.16-107.2-7.06-4.03L365.9 867.29z" />
        <path d="M365.86 867.21l8.17 4.33 1.38 103.2-7.5-5.37-2.05-102.16zm-14.96-11.92l8.21 4.45 152.66-104.2-7.06-4.03L350.9 855.29z" />
        <path d="M350.86 855.21l8.17 4.33 1.38 104.2-7.5-5.37-2.05-103.16zm-15.46-9.92l8.21 4.45 153.16-103.7-7.06-4.03L335.4 845.29z" />
        <path d="M335.36 845.21l8.17 4.33 1.38 103.2-7.5-5.37-2.05-102.16zm-14.46-9.42l8.21 4.45 152.16-102.7-7.06-4.03L320.9 835.79z" />
        <path d="M320.86 835.71l8.17 4.33 1.38 102.2-7.5-5.37-2.05-101.16zm-15.46-9.92l8.21 4.45 152.66-102.7-7.06-4.03L305.4 825.79z" />
        <path d="M305.36 825.71l8.17 4.33 1.38 101.2-7.5-5.37-2.05-100.16zm-15.46-10.42l8.21 4.45 151.66-101.7-7.06-4.03L289.9 815.29z" />
        <path d="M289.86 815.21l8.17 4.33 1.38 100.7-7.5-5.37-2.05-99.66zm-16.96-11.42l8.21 4.45 151.66-99.7-7.06-4.03-152.81 99.28z" />
        <path d="M272.86 803.71l8.17 4.33 1.88 100.2-7.5-5.37-2.55-99.16zm-17.46-11.92l8.21 4.45 152.16-98.2-7.06-4.03-153.31 97.78z" />
        <path d="M255.36 791.71l8.17 4.33 2.88 100.7-7.5-5.37-3.55-99.66zm-16.96-11.92l8.21 4.45 152.67-95.7-7.06-4.03-153.81 95.28z" />
        <path d="M238.36 779.71l8.17 4.33 2.88 100.2-7.5-5.37-3.55-99.16zm-15.46-9.92l8.21 4.45 152.67-95.2-7.06-4.03-153.81 94.78z" />
        <path d="M222.86 769.71l8.17 4.33 2.38 98.2-7.5-5.37-3.05-97.16zm-16.46-11.42l8.21 4.45 153.59-92.98-7.06-4.03-154.74 92.56z" />
        <path d="M206.36 758.21l8.17 4.33 1.88 97.7-7.5-5.37-2.55-96.66zm-15.96-9.92l8.21 4.45 153.59-92.98-7.06-4.03-154.74 92.56z" />
        <path d="M190.36 748.21l8.17 4.33 1.88 96.2-7.5-5.37-2.55-95.16zm-13.96-9.42l8.21 4.45 152.59-91.48-7.06-4.03-153.74 91.06z" />
        <path d="M176.36 738.71l8.17 4.33 1.88 96.2-7.5-5.37-2.55-95.16z" />
        <path d="M585.2 800.65l1 6.4m-175.71 193.24l-1.87-98.05" />
        <path d="M396.31 990.94l-1.47-97.61m147.38-110.91l30.16 17.43m34.27 18.38l-6.37-3.83m-211.25 74.42l152.91-106.55m58.34 31.62L446.05 926.3m-42.15 68.98l-2.37-98.05m17.16 109.73l-1.37-98.55m94.51-152.54l.64 9.29m-15.59-18.89l.59 9.38m-16.09-17.83l.09 9.33m-15.04-19.33l.55 10.33m-17.05-19.83l.05 10.83m-112.69-77.36l.49 7.98m14.57.12l.14 10.85m16.06-.84l.28 9.71m15.17-.43l.05 9.74m15.31.07l.1 10.65m16.29-1.56l-.13 12.91m17.17-2.34l.02 11.73m108.02 52.49l.64 9.29m-15.14-17.29l.64 7.79" />
        <path d="M532.3 980.91v14.28l4.54-3.57m22.21-32.33l.07 10.13" />
    </g>
    <path d="M326.25 649.7l-3.05-1.83" class="G" />
    <path d="M537.1 991.66l27.67 14c10.08-.66 14.61-10.87 13.08-18.36l-23.43-22.01c-13.17 4.86-18.22 13.67-17.32 26.37" class="C I" />
    <path d="M556.94 967.65c-11.41 4.98-15.89 13.64-16.92 24.99" class="C D" />
    <path d="M559.88 970.41c-10.83 4.74-15.3 15.14-15.31 24.42m20.52-19.54c-9.44 1.45-16.11 12.02-15.48 22.38m20.67-17.6c-7.22-.05-15.96 8.38-14.64 20.93m20.35-15.01c-8.27-2.02-15.86 11.06-12.83 18.59" class="I C" />
    <path d="M242.8 693.63c-63.73-27.1-123.89-19.33-173.24 23.73-40.64 37.46-60.28 85.18-62.88 141.23 1.81 47.51 10.73 89.97 25.64 128.17l15.96 14.51-3.38 3.44-17.72-16.24C11.72 950.42 2.41 907.65 1.33 858.59c.89-55.62 19.34-105.16 64.19-145.57 27.16-24.11 56.66-36.66 87.27-39.75 31.18-3.15 63.5 3.51 95.65 17.77l-5.64 2.58z" class="G" />
    <path d="M58.12 805.17c-19.81-.46-35.66-3.04-47.55-7.73l-5.93 27.14c13.91 6.04 30.49 8.35 50.22 7.53 2.9-6.88 3.34-16.27 3.26-26.94" class="E I" />
    <path d="M48.18 827.91c1.28-3.58 1.93-9.17 2.13-15.72m-10.04 15.72c1.77-4.06 2.22-8.62 1.83-13.49M32.05 826.8c2.3-4.76 2.84-9.17 2.43-13.39m-9.22 11.97c.3-.45.61-1.65.91-4.26m-7.1 3.24c1.57-3.62 2.42-7.24 2.64-10.85m-8.83 9.33a55.1 55.1 0 0 0 3.86-17.55m5.96 203.76l-2.64 3.65m6.09 1.33l-.1-5.48m28.5-5.98l-6.49-.51m2.54 5.99l-4.56-4.26" class="C" />
    <path d="M27.38 989.98c-2.88 7.55-4.43 13.63-4.88 18.47l4.36 1.42a80.9 80.9 0 0 1 4.38-15.83l-3.86-4.06z" fill="gray" class="B C" />
    <g class="G">
        <path d="M1182.08 1032.89c5.73 3.37 9.48 7.73 10.14 13.63l-29.95 21.55h-4.28l-16.64 13.31c-2.68.49-4.55.72-6.36 0-3.42-1.47-6.12-4.04-6.12-8.52-.42-1.45 1.17-4.37 2.5-6.7l17.59-12.68v-3.33l22.82-14.9 5.23 1.43 5.07-3.8z" />
        <path d="M1144.87 1056.43c4.81 3.82 8.18 8.29 9.87 13.49m-13.98-9.74c5.17 4.05 8.26 8.09 10.13 13.18m21.49-37.95c5.21 3.37 12.51 9.65 13.07 15.99m-35.71 1.62c5.83 3.62 8.7 8.37 9.03 14.11m-22.55-4.34c5.58 3.64 9.15 8.04 10.57 13.23" />
    </g>
    <path d="M569 999.12c10.86 7.02 29.56 18.96 41.41 24.55 31.13 14.67 63.67 24.17 90.13 46.86 7.95 6.82 15.82 15.73 20.53 25.3 3.24 6.57 5.15 13.72 8.29 20.33 11.35 23.89 25.03 52.07 40.95 74.1 12.57 17.39 28.96 28.72 47.56 38.79 37.67 20.38 77.61 25.97 120.19 24.04 29.18-1.32 57.79-10.91 80.75-29.21 31.9-25.43 49.06-66.41 72.66-98.34 17.1-22.28 31.38-36.56 44.55-48.37 1.37-1.23-3.08-6.19-4.45-4.96-13.42 12.03-27.98 26.59-45.4 49.29-.01.02-.02.03-.04.05-23.28 31.48-40.02 72.04-71.48 97.12-21.85 17.43-49.11 26.51-76.89 27.77-41.34 1.87-80.14-3.46-116.72-23.25-17.71-9.58-33.37-20.28-45.33-36.83-15.69-21.71-29.15-49.51-40.33-73.06-3.15-6.64-5.08-13.83-8.33-20.42-5.1-10.35-13.57-20.03-22.17-27.41-26.92-23.09-59.95-32.91-91.62-47.83-11.64-5.48-29.98-17.23-40.64-24.12-1.55-1-5.16 4.6-3.62 5.6z" class="G" fill="#fff" />
    <g class="G B">
        <path d="M1131.97 1065.89c6.38 2.61 9.95 7.42 10.97 14.01" />
        <path d="M1681 433a1 1 0 0 0-1-1h-147.06a1 1 0 0 0-1 1v98.32a1 1 0 0 0 1 1h147a1 1 0 0 0 1-1v-98.32z" class="filled" />
        <path d="M1685 429a1 1 0 0 0-1-1h-147.06a1 1 0 0 0-1 1v98.32a1 1 0 0 0 1 1h147a1 1 0 0 0 1-1V429z" fill="#fff" />
    </g>
    <g class="D B">
        <path d="M124.33 332.01l12.83-79.04L1061.52 1.33l232.02 153.61-180.86 78.57-1.56 12.25-611.43 272.77L212.16 317.2l-3.31-13.93-69.61-50.87m-15.01 79.99L504.41 593.2l792.24-378.16-2.31-59.8" class="E" />
        <path d="M208.21 302.97L902.96 93.44l210.1 139.65" class="G" />
        <path d="M140.43 344l.18 67.02 355.6 199.6-.14-22.59m.81 22.05l795.85-382.59.01-10.47" class="E" />
        <path d="M212.4 316.67l691.77-212.96 204.52 142.56M904.24 103.42l-.4-9.29m216.77 143.09l167.21-74.07.47 48.95-167.7 80.48.03-55.36zM963.15 112.76l158.03-51.06 138.59 91.07-141.89 61.6-154.72-101.61z" class="G" />
        <path d="M499.74 518.1l3.36 73.6" class="E" />
        <g class="G">
            <path d="M530.74 423.24l29.54 21.1 2.35 10.14m-22.72-34.81l28.48 21.18-.55 11.27m34.8-14.98l1.16-11.97-28.62-20.27m29.8-12.58l26.16 20.41m41.66-5.95l-2.69-9.74m-26.63-20.22l26.16 19.91m39.37-5.36l-2.69-9.74m-26.63-20.23l26.16 19.91m123.92-81.68l23.13 18.28 3.6 9.76m-18.28-31.3l23.25 17.8-.69 11.15m-.06-38.45l23.25 17.8 1.32 10.39m-16.03-31.73l23.25 17.8-1.19 11.15m15.14-43.9l22.75 17.3-.69 10.65m18.94-45.45l22.75 17.3-.19 10.65m-73.62-6.57l22.75 17.3 2.32 10.39m16.84-45.28l22.25 17.3 2.82 9.39m35.94-25.63l1.03 9.4m-672.43 59.85l1.79-7.79m668.92-62.04l-22.47-16m-10.3 3.46l-2.23-12.39m0 0l-20.22-14.4m-8.86 2.13l-2.27-10.06m0 0l-48.82-34.05m-7.31 1.2l-3.13-9.35m.01.01l-22.78-16.23m-317.1 317.98l-205.04-142.2" />
            <path d="M533.15 455.45l-30.08-20.39m-13.42-9.33l-31.58-21.54m-11.18-7.63l-29.59-20.19m-10.53-7.17l-30.69-20.93m-11.79-8.05l-34.18-23.47m670.26-51.13L533.15 467.45m465.87-212.09l-29.26 12.51m-9.74 4.17l-30.89 12.92" />
            <path d="M918.91 289.62l-26.31 11.46m-8.91 3.6l-22.42 9.59m-8.69 3.94l-138.66 59.51m-8.54 3.95l-27.13 11.36m-8.85 3.8l-29.82 12.8m-4.78 13.15l-3.19-9.74m0 0l-27.66 11.87m-9.85 4.02l-25.75 11.57m-8.11 3.78l-27.09 11.66m0 .01v10.45m-30.11-31.84l-2.8 9.01m-11.14-17.5l-.4 9.5m125.22-46.9l29.01-11.69m5.49 2.88l3.49-6.88m0 0l27.61-11.62m9.08-3.55l140.94-58.45" />
            <path d="M834.34 301.79l3.88-5.8m0 0l22.17-9.37m5.5 3l3.61-6.56m0 0l26.66-11.02m6.5 4.5l3.77-8.75m.01.01l32.01-13.23m6 4l2.96-7.41m.5-.5l27.91-11.53m-362.4 150.04l-2.72 6.5m-6.04-3.38l-29.16 12.26m38.15-15.77l26.01 20.64-1 11.84m12.99-47.98l26.01 20.14-1 11.84m8.26-40.9l3.49-6.38m.24.3l25.51 19.64-1 11.84M575.5 404.55l-3.83 6.1m-5.11-2.61l-26.77 11.27m26.99-11.16l27.68 20.56 3.32 10.68m-65.5-63.74l28.68 21.06 3.82 11.68m9.5-49.24l27.68 20.56 3.82 12.68m-66.14-11.93l4.64-9.81 27.68 21.06-1.61 17.98m11.29-45.73l4.14-9.81 28.18 20.06-3.61 20.48m11.14-45.74l3.14-9.81 27.68 19.56-2.61 18.48m9.3-41.15l3.64-11.31 25.86 19.04-2.61 18.39m10.41-41.25l3.14-10.81 24.86 18.54-2.61 15.39m9.42-36.63l3.14-10.81 23.36 18.54-1.61 14.39m4.69-35.35l3.64-8.81 22.86 17.54-1.11 14.39m7.52-36.24l3.64-8.81 23.86 17.04-1.11 13.89m-280.2 116.15l-4.45 6.27" />
            <path d="M530.72 423.05l-27.57 11.39m459.68-203.82l-77.59 31.98m-11.77 4.85l-19.9 7.91m-10.8 4.75l-21.98 9.27m-11.39 4.48l-22.55 9.29m-8.76 3.62l-20.76 8.56m-10.82 4.45l-22.15 9.13m-11.47 4.73l-24.88 10.26m-12.14 5l-23.94 9.87m-11.62 4.78l-26.64 10.98m-12.27 5.06l-29.45 11.84m-11.78 5.16l-70.02 28.86m452.82-209.78l-78.77 30.56m-12.53 5.01l-20.81 7.92m-10.97 4.26l-22.52 8.74m-10.71 4.15l-22.05 8.55" />
            <path d="M753.7 288.9l-18.77 7.48m-13.54 5.06l-21.41 8.5m-12.5 4.94l-24.44 9.59m-13.32 4.97l-24.5 9.5m-11.48 4.45l-27.13 10.53m-12.73 4.94l-29.33 11.38m-12.93 5.01l-73.97 28.7-2.83 8.63m477.15-204.41l-62.89 24.36m0 0l-1.52 12.2m-9.91-7.77l-20.08 7.78m0-.01l-1.03 11.11m-8.8-7.3l-22.44 8.69m0 0l-.52 11.82m-11.4-7.2l-21.97 8.51m0 0v11.89m-10.55-7.8l-20.63 7.99m-.01 0l-.81 12.05m-9.9-7.91l-23.53 9.11m0 .01l-.53 11.73m-10.9-7.3l-23.02 8.92m-.01-.01l-1.35 12.39m-9.55-8.16l-26.99 10.45m0 0l-.71 11.65m-11.63-6.87l-24.67 9.55m0 .01l-.71 11.81m-12.61-6.66l-24.66 9.55m0 .01l-3 12.54m-10-7.51l-31.07 12.03m0 0l-2.94 12.61m-9.41-7.82l-55.07 21.33m428.39-186.73l-25.41 9.24m-1 .5l-2.96 7.31m-7-3.5l-21.1 7.36m0-.01l-2.78 7.83m-7.3-4.16l-22.54 8.2m0 0l-3.89 10.51m-9.24-5.7l-21.53 7.79m0 0l-4.92 8.65m-6.5-3.99l-20.41 6.92m0 0l-2.81 10.8m-9.5-6.5l-22.89 8.51m0-.01l-3.35 10.49m-9.5-5.76l-22.15 8m-.5.51l-2.54 9.19m-9.14-5.45l-26.07 9.81m-.18.24l-3.39 11.73m-10.5-6.5l-23.5 8.05m0 0l-5.72 10.87m-9.57-4.99l-23.56 8.25m-.5.5l-3.5 11.13m-10.95-5.87l-29.92 10.56m0 0l-4.97 9.95m-8.81-4.62l-58.29 20.88m440.39-173.22l-25.98 9.58m-.01 0v12.22m-11.09-8.13l-24.03 8.86m0 0l-1.11 12.23m-8.58-8.66l-23.49 8.66m0 0s-.39 12.8-.71 12.8m-10.56-8.64l-21.59 7.96m0 0l-.4 11.88m-10.38-7.91l-20.45 7.91m.01 0l-1.58 11.63m-9.28-8l-22.37 8.99m0-.01l-1.11 11.27m-10.63-7.68l-25.86 9.9m.01 0l-1 11.24m-9.67-7.67l-27.55 10.16m0-.01l-1.24 11.7m-11.5-7l-25.41 9.74m0 0l-1.91 11.07m-11.49-6.5l-25.45 9.75m-.01 0l-.79 11.03m-12.5-6.49l-31.34 11.74m-.01 0l-.61 11.28m-11.49-7.01l-49.73 18.33m476.68-195.15l-37.03 12.85m-7.24 2.14l-25.98 8.91m-.5.49l-3.86 8.57m-8.52-4.56l-23.67 8.03m0-.01l-2.79 7.85m-7.5-4l-22.92 7.53m0 0l-3.67 10.34m-8.77-5.57l-22.14 7.09m0 0l-3.22 8.5m-7.5-4.5l-20.96 6.86m0 0l-3.98 8.86m-8.18-4.37l-25.35 8.36m-.01 0l-2.35 7.7m-7.49-3.99l-27.31 9.03m-.01.13l-3.08 6.98m-6.21-3.87l-28 9.55m-.5.49l-4.44 9.44m-8.5-5.5l-26.16 9.14m0 0l-3.99 10.84m-9.27-6.47l-26.08 9.11" />
            <path d="M486.15 309.74l-4.61 9.57m-8.69-4.68l-32.43 10.79m0 0l-3.96 8.7m-7.73-4.37l-52.58 17.69m496.39-181.27l-51.06 17.79m.01.01l-1 10.76m-8.27-7.94l-25.03 9.75m0 0l-1.24 10.05m-8.45-7.93l-26.5 9.23m-.01 0l-1.13 11.13m-7.8-8.25l-23.12 8.24m0 .01l-1.49 11.06m-7.01-8.5l-25.78 9.32m.01 0l-.69 10.61m-8.07-8.13l-26.19 9.29m0 .01l-1 11.1m-8.13-8.32l-27.31 10.02m0-.01l-1.06 10.41m-8-7.99l-27.26 9.66m0 0l-1 10.69m-8.99-7.62l-33.12 11.49m0 0l-1.26 10.78m-8.13-7.74L494.7 295.5m0 0l-1.19 11m-6.59-8.52l-32.88 11.41m-.01 0l-1.21 11.12m-8.96-7.81l-34.07 11.65m-.01 0l-1.45 12.07m-9.34-8.38l-34.84 11.91m432.79-173.33l53.28-17.12-53.28 17.12m-2.13 5.43l2.13-5.43m-7.7 2.32l-28.83 9.42m-.5.5l-1.83 4.32m-5.13-2.58l-27.5 9m0-.01l-1.87 5.57m-5.91-3.23L694 199.69m.01.01l-2.54 5.65m-4.84-3.44l-27.92 9.13m0 0l-2.39 5.99m-5.79-3.53l-27.75 9.08m.01 0l-2.82 6.53m-6.52-3.69l-28.92 9.45m-.51.5l-1.52 4.86m-5.86-2.98l-28.23 9.27m0 0l-3.8 5.82m-5.46-2.78l-34.7 11.04m0 0l-2.8 5.73m-5.7-2.66l-31.47 9.77m-.58.46l-2.1 4.03m-3.5-2l-34.27 10.35m-.98.33l-3.7 6.64m-5.91-3.07l-33.73 10.5m-.5.5l-4.6 6.86m-5.69-3.39l-38.27 11.8m283.13 27.2l27.18 19.56 3.82 13.68m5-47.24l27.18 19.56 2.82 12.18m7.8-46.42l26.68 19.06 2.82 11.68" />
            <path d="M687.58 314.97l26.68 19.06 2.82 11.68m4.5-44.24l25.68 18.56 3.32 11.68m3-42.74l25.18 18.06 3.32 11.68m4.5-42.24l23.68 17.56 2.82 11.68m6.5-42.24l23.68 16.56 3.32 12.18m5.13-41.09l22.18 16.06 4.32 11.18m-50.81-10.31l3.64-8.81 22.86 16.54-1.11 13.89m6.71-33.87l4.14-9.31 21.86 16.04-2.11 14.89m-436.5 118.92l-.87 10.1m-29.17-30.18l-2.64 8.33m-7.46-15.8l-2.27 9.09m-28.57-29.97l-2.57 8.4m-9.57-16.19l-.51 9.09m482.86-162.13l30.04 21.87m-36.83-20.08l18.13 13.64" />
            <path d="M846.24 186.64l-2.99 5.18M475.78 355.15l26.68 19.06 2.82 10.68m14.5-45.74l26.18 18.56 2.82 10.18m9.5-42.74l25.68 18.06 2.82 10.18m10-42.24l25.18 17.56 2.82 11.18m12-43.74l25.18 17.56 2.82 9.68m6.3-39.62l23.68 16.06 3.32 13.68m9-42.74l22.68 15.56 4.82 10.68m5.08-37.79l21.68 15.06 4.32 9.68m7-37.24l21.18 15.06 4.32 9.18m10-37.24l19.68 14.56 4.32 10.18m7-35.74l18.68 14.06 5.32 10.68M489.02 349.94l25.6 19.51m19.22-35.86l25.11 19.01m13.88-32.72l24.11 18.01m13.39-32.01l23.61 17.51m14.39-31.51l23.61 17.01m11.89-29.51l22.11 16.01m13.1-28.76l21.61 15.51m10.14-26.95l21.11 15.01m13.22-27.56l20.61 14.51m12.29-26.45l19.61 13.51m11.89-25.51l19.61 13.51M429.25 329.7l27.5 20.75 3.25 9.75m13.25-45.5l27 19.75 3.25 9.75m8.75-43.5l26.5 19.25L542 330.2m9.75-43l26 18.75L581 316.2m12.25-43l25 17.75L621 301.7m9.25-41l24.5 16.75 2.75 10.75m7.75-39.5l23.5 16.25 2.75 10.75m6.75-38.25l22 15.75 2.75 10.75m8.25-37.62l21 15.25 3.25 10.75m11.25-38.25l20 14.25 3.75 11.75m10.25-38l20 14.25 3.75 11.75m32.97-25.52l4.17 11.46M440.23 325.8l27.68 20.24m18-36l26.56 19.84m12.82-33.02l25.8 18.36m13.7-32.46l25 18.4m12.62-30.62l25.26 16.94m11.78-29.9l26.02 16.96m11.48-30.02l21.6 16.56m10.26-27.44l21.98 15.76m12.32-27.44l20.64 15.44m12.56-26.64l20.56 14.16m15.92-27.12l18.94 14.22m-462.56 92.62l29.9 23.2 5.9 9.3m-25.6-36.3l30.9 23.4m3.4-34l30.4 22.4 4.6 9.6m-25.3-35.8l30.1 22.6m5-33.1l29.1 21.9 3.3 9.9m-26.8-34.2l30.9 21.8m1.3-31.8l28.5 21.2 3.9 10.2m-24.4-34l29.4 21.1m5.7-32.5l28.2 20.8 4.2 9.8m-23.01-33.62l27.32 20.61m.89-29.59l27.7 20.2 3.5 9.8m-24-32.5l28.2 20.3m1.2-29.8l27.7 19.9 3.6 9.6m-21.6-31.9l26 19.6m1.6-28.9l25.3 19.2 5.5 9.5m-22.9-31.2l25.1 19.2m2.9-28.5l24 19.4 4.4 9.9m-21.3-31.3l24.5 18.7m-.2-26.6l24 18.4 4.4 9m-20.8-29.5l24.9 17.6m2.6-26.9l24.8 17.9 3.1 9.7m-20.7-29.7l26.3 18m2.9-27.5l23.6 17.7 3.7 9.2m-20-28.9l24 16.7m613.91 301.27h-268.23l2.82 362.54c0 1.48 14.7 19.19 14.7 19.19" />
            <path d="M1451.56 503.79c0-1.48-1.2-2.68-2.68-2.68h-262.73c-1.48 0-2.68 1.2-2.68 2.68v361.36c0 1.48 1.2 2.68 2.68 2.68h262.73c1.48 0 2.68-1.2 2.68-2.68V503.79z" />
        </g>
        <path d="M1169.95 487.48l263.8-.31m-261.73 2.35l263.54-.31m-261.02 2.52l264.07-.31m-261.54 2.69l264.63-.31m-262.13 2.69l264.63-.31m-262.6 2.65l264.31-.47" class="C" />
        <path d="M1167.37 485.76l16.46 15.98" class="E" />
    </g>
    <text x="1615" y="470" text-anchor="middle" class="B">GUARANTEE</text>
    <text x="1615" y="490" text-anchor="middle" class="B">CARD</text>
</svg>